<svg width="24.000000000000004" height="24.000000000000004" xmlns="http://www.w3.org/2000/svg">

 <g>
  <title>background</title>
  <rect fill="#005e66" id="canvas_background" height="26" width="26" y="-1" x="-1"/>
 </g>
 <g>
  <title>Layer 1</title>
  <path id="svg_2" d="m23.638,18.123c-1.045,1.193 -2.553,1.877 -4.138,1.877l-14.999,0c-1.586,0 -3.094,-0.684 -4.138,-1.877c-0.13,-0.148 -0.251,-0.303 -0.363,-0.462l0,1.839c0,2.481 2.019,4.5 4.5,4.5l15,0c2.481,0 4.5,-2.019 4.5,-4.5l0,-1.84c-0.112,0.16 -0.233,0.315 -0.362,0.463z"/>
  <path id="svg_3" d="m4.501,19l14.999,0c1.297,0 2.531,-0.56 3.386,-1.536c0.854,-0.976 1.246,-2.273 1.072,-3.576l-1.395,-8.146c-0.372,-2.169 -2.238,-3.742 -4.437,-3.742l-12.253,0c-2.198,0 -4.064,1.573 -4.435,3.741l-1.398,8.164c-0.171,1.286 0.22,2.583 1.075,3.559c0.854,0.976 2.088,1.536 3.386,1.536zm7.807,-11.962c0.255,-0.102 0.548,0.014 0.654,0.27l2.038,4.892l2.039,-4.893c0.106,-0.255 0.4,-0.371 0.654,-0.27c0.255,0.106 0.375,0.399 0.269,0.654l-2.5,6c-0.078,0.188 -0.26,0.309 -0.462,0.309s-0.384,-0.121 -0.461,-0.308l-2.5,-6c-0.107,-0.254 0.014,-0.548 0.269,-0.654zm-5.808,-0.038l4,0c0.276,0 0.5,0.224 0.5,0.5s-0.224,0.5 -0.5,0.5l-1.5,0l0,5.5c0,0.276 -0.224,0.5 -0.5,0.5s-0.5,-0.224 -0.5,-0.5l0,-5.5l-1.5,0c-0.276,0 -0.5,-0.224 -0.5,-0.5s0.224,-0.5 0.5,-0.5z"/>
  <rect id="svg_4" width="24" height="24" fill="none"/>
 </g>
</svg>